kern_mock_rtl.ufo
<glyph name="L" format="2">
	<unicode hex="004C"/>
	<advance width="596"/>
	<outline>
		<contour>
			<point x="552" y="0" type="line"/>
			<point x="411" y="0" type="line"/>
			<point x="411" y="56" type="line"/>
			<point x="421" y="56" type="line"/>
			<point x="552" y="41" type="line"/>
		</contour>
		<contour>
			<point x="461" y="0" type="curve"/>
			<point x="360" y="0" type="line"/>
			<point x="363" y="101"/>
			<point x="363" y="205"/>
			<point x="363" y="290" type="curve" smooth="yes"/>
			<point x="363" y="359" type="line" smooth="yes"/>
			<point x="363" y="462"/>
			<point x="363" y="567"/>
			<point x="360" y="670" type="curve"/>
			<point x="461" y="670" type="line"/>
			<point x="458" y="569"/>
			<point x="458" y="464"/>
			<point x="458" y="359" type="curve" smooth="yes"/>
			<point x="458" y="309" type="line" smooth="yes"/>
			<point x="458" y="207"/>
			<point x="458" y="103"/>
		</contour>
		<contour>
			<point x="411" y="0" type="line"/>
			<point x="54" y="0" type="line"/>
			<point x="44" y="188" type="line"/>
			<point x="105" y="188" type="line"/>
			<point x="140" y="21" type="line"/>
			<point x="104" y="50" type="line"/>
			<point x="411" y="50" type="line"/>
		</contour>
		<contour>
			<point x="552" y="629" type="line"/>
			<point x="421" y="614" type="line"/>
			<point x="400" y="614" type="line"/>
			<point x="269" y="629" type="line"/>
			<point x="269" y="670" type="line"/>
			<point x="552" y="670" type="line"/>
		</contour>
	</outline>
	<anchor name="aboveUC" x="406" y="690"/>
	<anchor name="belowLC" x="279" y="-20"/>
</glyph>
<glyph name="V" format="2">
	<unicode hex="0056"/>
	<advance width="674"/>
	<outline>
		<contour>
			<point x="351" y="-7" type="line"/>
			<point x="307" y="-7" type="line"/>
			<point x="78" y="670" type="line"/>
			<point x="133" y="670" type="line"/>
			<point x="319" y="122" type="line"/>
			<point x="324" y="107" type="line"/>
			<point x="304" y="107" type="line"/>
			<point x="501" y="670" type="line"/>
			<point x="602" y="670" type="line"/>
		</contour>
		<contour>
			<point x="659" y="629" type="line"/>
			<point x="529" y="614" type="line"/>
			<point x="508" y="614" type="line"/>
			<point x="386" y="625" type="line"/>
			<point x="386" y="670" type="line"/>
			<point x="659" y="670" type="line"/>
		</contour>
		<contour>
			<point x="240" y="625" type="line"/>
			<point x="139" y="614" type="line"/>
			<point x="119" y="614" type="line"/>
			<point x="9" y="629" type="line"/>
			<point x="9" y="670" type="line"/>
			<point x="240" y="670" type="line"/>
		</contour>
	</outline>
	<anchor name="aboveUC" x="316" y="690"/>
	<anchor name="belowLC" x="328" y="-20"/>
</glyph>
<glyph name="a" format="2">
	<unicode hex="0061"/>
	<advance width="509"/>
	<outline>
		<contour>
			<point x="330" y="-13" type="curve" smooth="yes"/>
			<point x="268" y="-13"/>
			<point x="235" y="15"/>
			<point x="175" y="75" type="curve"/>
			<point x="145" y="75" type="line"/>
			<point x="159" y="125" type="line"/>
			<point x="240" y="65"/>
			<point x="261" y="53"/>
			<point x="295" y="53" type="curve" smooth="yes"/>
			<point x="341" y="53"/>
			<point x="375" y="74"/>
			<point x="375" y="126" type="curve" smooth="yes"/>
			<point x="375" y="157"/>
			<point x="367" y="197"/>
			<point x="276" y="226" type="curve" smooth="yes"/>
			<point x="232" y="240"/>
			<point x="188" y="255"/>
			<point x="143" y="269" type="curve"/>
			<point x="143" y="305" type="line"/>
			<point x="195" y="290"/>
			<point x="246" y="275"/>
			<point x="298" y="260" type="curve" smooth="yes"/>
			<point x="437" y="220"/>
			<point x="464" y="169"/>
			<point x="464" y="112" type="curve" smooth="yes"/>
			<point x="464" y="29"/>
			<point x="403" y="-13"/>
		</contour>
		<contour>
			<point x="93" y="-10" type="curve" smooth="yes"/>
			<point x="58" y="-10"/>
			<point x="30" y="3"/>
			<point x="6" y="42" type="curve"/>
			<point x="26" y="64" type="line"/>
			<point x="37" y="51"/>
			<point x="48" y="42"/>
			<point x="65" y="42" type="curve" smooth="yes"/>
			<point x="87" y="42"/>
			<point x="101" y="58"/>
			<point x="101" y="101" type="curve" smooth="yes"/>
			<point x="101" y="314" type="line" smooth="yes"/>
			<point x="101" y="440"/>
			<point x="151" y="488"/>
			<point x="256" y="488" type="curve" smooth="yes"/>
			<point x="358" y="488"/>
			<point x="432" y="440"/>
			<point x="451" y="364" type="curve"/>
			<point x="448" y="338"/>
			<point x="432" y="323"/>
			<point x="404" y="323" type="curve" smooth="yes"/>
			<point x="377" y="323"/>
			<point x="361" y="340"/>
			<point x="352" y="371" type="curve" smooth="yes"/>
			<point x="327" y="456" type="line"/>
			<point x="369" y="424" type="line"/>
			<point x="331" y="439"/>
			<point x="302" y="442"/>
			<point x="279" y="442" type="curve" smooth="yes"/>
			<point x="213" y="442"/>
			<point x="185" y="418"/>
			<point x="185" y="321" type="curve" smooth="yes"/>
			<point x="185" y="96" type="line"/>
			<point x="185" y="91" type="line"/>
			<point x="185" y="30"/>
			<point x="149" y="-10"/>
		</contour>
	</outline>
	<anchor name="aboveLC" x="258" y="495"/>
	<anchor name="belowLC" x="259" y="-20"/>
	<anchor name="ogonek" x="62" y="0"/>
</glyph>
<glyph name="i" format="2">
  <advance width="298"/>
  <unicode hex="0069"/>
  <anchor x="150" y="717" name="aboveLC"/>
  <anchor x="146" y="-20" name="belowLC"/>
  <anchor x="103" y="0" name="ogonek"/>
  <outline>
    <contour>
      <point x="263" y="0" type="line"/>
      <point x="31" y="0" type="line"/>
      <point x="31" y="36" type="line"/>
      <point x="131" y="56" type="line"/>
      <point x="154" y="56" type="line"/>
      <point x="263" y="36" type="line"/>
    </contour>
    <contour>
      <point x="190" y="0" type="curve"/>
      <point x="99" y="0" type="line"/>
      <point x="101" y="45"/>
      <point x="102" y="148"/>
      <point x="102" y="210" type="curve" smooth="yes"/>
      <point x="102" y="342" type="line"/>
      <point x="99" y="478" type="line"/>
      <point x="114" y="488" type="line"/>
      <point x="269" y="427" type="line"/>
      <point x="269" y="392" type="line"/>
      <point x="190" y="383" type="line"/>
      <point x="188" y="343"/>
      <point x="187" y="312"/>
      <point x="187" y="257" type="curve" smooth="yes"/>
      <point x="187" y="210" type="line" smooth="yes"/>
      <point x="187" y="148"/>
      <point x="188" y="45"/>
    </contour>
    <contour>
      <point x="150" y="589" type="curve" smooth="yes"/>
      <point x="113" y="589"/>
      <point x="83" y="615"/>
      <point x="83" y="653" type="curve" smooth="yes"/>
      <point x="83" y="690"/>
      <point x="113" y="717"/>
      <point x="150" y="717" type="curve" smooth="yes"/>
      <point x="188" y="717"/>
      <point x="217" y="690"/>
      <point x="217" y="653" type="curve" smooth="yes"/>
      <point x="217" y="615"/>
      <point x="188" y="589"/>
    </contour>
  </outline>
</glyph>
<glyph name="t" format="2">
  <advance width="325"/>
  <unicode hex="0074"/>
  <anchor x="173" y="591" name="aboveLC"/>
  <anchor x="121" y="0" name="baseLC"/>
  <anchor x="121" y="-20" name="belowLC"/>
  <outline>
    <contour>
      <point x="191" y="422" type="line"/>
      <point x="12" y="422" type="line"/>
      <point x="12" y="475" type="line"/>
      <point x="191" y="475" type="line"/>
    </contour>
    <contour>
      <point x="120" y="-13" type="curve" smooth="yes"/>
      <point x="69" y="-13"/>
      <point x="28" y="6"/>
      <point x="2" y="40" type="curve"/>
      <point x="26" y="66" type="line"/>
      <point x="51" y="48"/>
      <point x="71" y="39"/>
      <point x="93" y="39" type="curve" smooth="yes"/>
      <point x="127" y="39"/>
      <point x="148" y="61"/>
      <point x="148" y="112" type="curve" smooth="yes"/>
      <point x="148" y="435" type="line"/>
      <point x="148" y="455" type="line"/>
      <point x="141" y="611" type="line"/>
      <point x="201" y="611" type="line"/>
      <point x="233" y="448" type="line"/>
      <point x="192" y="481" type="line"/>
      <point x="316" y="466" type="line"/>
      <point x="316" y="422" type="line"/>
      <point x="233" y="422" type="line"/>
      <point x="233" y="186" type="line" smooth="yes"/>
      <point x="233" y="147"/>
      <point x="234" y="126"/>
      <point x="234" y="101" type="curve" smooth="yes"/>
      <point x="234" y="23"/>
      <point x="190" y="-13"/>
    </contour>
  </outline>
</glyph>
<glyph name="agrave" format="2">
	<unicode hex="00E0"/>
	<advance width="509"/>
	<outline>
		<contour>
			<point x="203" y="576" type="line"/>
			<point x="232" y="623"/>
			<point x="260" y="669"/>
			<point x="292" y="717" type="curve" smooth="yes"/>
			<point x="311" y="748"/>
			<point x="328" y="758"/>
			<point x="346" y="758" type="curve" smooth="yes"/>
			<point x="366" y="758"/>
			<point x="384" y="746"/>
			<point x="384" y="720" type="curve" smooth="yes"/>
			<point x="384" y="706"/>
			<point x="378" y="691"/>
			<point x="350" y="665" type="curve" smooth="yes"/>
			<point x="309" y="628"/>
			<point x="270" y="593"/>
			<point x="229" y="557" type="curve"/>
		</contour>
		<component base="a"/>
	</outline>
</glyph>
<glyph name="aacute" format="2">
  <advance width="509"/>
  <unicode hex="00E1"/>
  <outline>
    <contour>
      <point x="317" y="576" type="curve"/>
      <point x="291" y="557" type="line"/>
      <point x="250" y="593"/>
      <point x="211" y="628"/>
      <point x="170" y="665" type="curve" smooth="yes"/>
      <point x="142" y="691"/>
      <point x="136" y="706"/>
      <point x="136" y="720" type="curve" smooth="yes"/>
      <point x="136" y="746"/>
      <point x="155" y="758"/>
      <point x="174" y="758" type="curve" smooth="yes"/>
      <point x="192" y="758"/>
      <point x="209" y="748"/>
      <point x="228" y="717" type="curve" smooth="yes"/>
      <point x="260" y="669"/>
      <point x="289" y="623"/>
    </contour>
    <component base="a"/>
  </outline>
</glyph>
<glyph name="acircumflex" format="2">
  <advance width="509"/>
  <unicode hex="00E2"/>
  <outline>
    <contour>
      <point x="132" y="546" type="line"/>
      <point x="109" y="568" type="line"/>
      <point x="241" y="744" type="line"/>
      <point x="275" y="744" type="line"/>
      <point x="407" y="568" type="line"/>
      <point x="384" y="546" type="line"/>
      <point x="216" y="698" type="line"/>
      <point x="300" y="698" type="line"/>
    </contour>
    <component base="a"/>
  </outline>
</glyph>
<glyph name="atilde" format="2">
  <advance width="509"/>
  <unicode hex="00E3"/>
  <outline>
    <contour>
      <point x="421" y="586" type="curve"/>
      <point x="394" y="577" type="line"/>
      <point x="380" y="626"/>
      <point x="362" y="656"/>
      <point x="332" y="656" type="curve" smooth="yes"/>
      <point x="305" y="656"/>
      <point x="285" y="630"/>
      <point x="263" y="608" type="curve" smooth="yes"/>
      <point x="243" y="589"/>
      <point x="223" y="575"/>
      <point x="190" y="575" type="curve" smooth="yes"/>
      <point x="134" y="575"/>
      <point x="107" y="626"/>
      <point x="95" y="703" type="curve"/>
      <point x="122" y="713" type="line"/>
      <point x="136" y="664"/>
      <point x="154" y="633"/>
      <point x="184" y="633" type="curve" smooth="yes"/>
      <point x="211" y="633"/>
      <point x="229" y="658"/>
      <point x="253" y="681" type="curve" smooth="yes"/>
      <point x="272" y="700"/>
      <point x="293" y="715"/>
      <point x="326" y="715" type="curve" smooth="yes"/>
      <point x="381" y="715"/>
      <point x="410" y="664"/>
    </contour>
    <component base="a"/>
  </outline>
</glyph>
<glyph name="adieresis" format="2">
  <advance width="509"/>
  <unicode hex="00E4"/>
  <outline>
    <contour>
      <point x="363" y="596" type="curve" smooth="yes"/>
      <point x="330" y="596"/>
      <point x="303" y="620"/>
      <point x="303" y="653" type="curve" smooth="yes"/>
      <point x="303" y="685"/>
      <point x="330" y="710"/>
      <point x="363" y="710" type="curve" smooth="yes"/>
      <point x="395" y="710"/>
      <point x="422" y="685"/>
      <point x="422" y="653" type="curve" smooth="yes"/>
      <point x="422" y="620"/>
      <point x="395" y="596"/>
    </contour>
    <contour>
      <point x="153" y="596" type="curve" smooth="yes"/>
      <point x="121" y="596"/>
      <point x="94" y="620"/>
      <point x="94" y="653" type="curve" smooth="yes"/>
      <point x="94" y="685"/>
      <point x="121" y="710"/>
      <point x="153" y="710" type="curve" smooth="yes"/>
      <point x="186" y="710"/>
      <point x="213" y="685"/>
      <point x="213" y="653" type="curve" smooth="yes"/>
      <point x="213" y="620"/>
      <point x="186" y="596"/>
    </contour>
    <component base="a"/>
  </outline>
</glyph>
<glyph name="igrave" format="2">
	<unicode hex="00EC"/>
	<advance width="298"/>
	<outline>
		<contour>
			<point x="94" y="576" type="line"/>
			<point x="123" y="623"/>
			<point x="151" y="669"/>
			<point x="183" y="717" type="curve" smooth="yes"/>
			<point x="202" y="748"/>
			<point x="219" y="758"/>
			<point x="237" y="758" type="curve" smooth="yes"/>
			<point x="257" y="758"/>
			<point x="275" y="746"/>
			<point x="275" y="720" type="curve" smooth="yes"/>
			<point x="275" y="706"/>
			<point x="269" y="691"/>
			<point x="241" y="665" type="curve" smooth="yes"/>
			<point x="200" y="628"/>
			<point x="161" y="593"/>
			<point x="120" y="557" type="curve"/>
		</contour>
		<component base="dotlessi"/>
	</outline>
</glyph>
<glyph name="iacute" format="2">
  <advance width="298"/>
  <unicode hex="00ED"/>
  <outline>
    <contour>
      <point x="208" y="576" type="curve"/>
      <point x="182" y="557" type="line"/>
      <point x="141" y="593"/>
      <point x="102" y="628"/>
      <point x="61" y="665" type="curve" smooth="yes"/>
      <point x="33" y="691"/>
      <point x="27" y="706"/>
      <point x="27" y="720" type="curve" smooth="yes"/>
      <point x="27" y="746"/>
      <point x="46" y="758"/>
      <point x="65" y="758" type="curve" smooth="yes"/>
      <point x="83" y="758"/>
      <point x="100" y="748"/>
      <point x="119" y="717" type="curve" smooth="yes"/>
      <point x="151" y="669"/>
      <point x="180" y="623"/>
    </contour>
    <component base="dotlessi"/>
  </outline>
</glyph>
<glyph name="idieresis" format="2">
  <advance width="298"/>
  <unicode hex="00EF"/>
  <outline>
    <contour>
      <point x="241" y="596" type="curve" smooth="yes"/>
      <point x="209" y="596"/>
      <point x="181" y="620"/>
      <point x="181" y="653" type="curve" smooth="yes"/>
      <point x="181" y="685"/>
      <point x="209" y="710"/>
      <point x="241" y="710" type="curve" smooth="yes"/>
      <point x="274" y="710"/>
      <point x="300" y="685"/>
      <point x="300" y="653" type="curve" smooth="yes"/>
      <point x="300" y="620"/>
      <point x="274" y="596"/>
    </contour>
    <contour>
      <point x="52" y="596" type="curve" smooth="yes"/>
      <point x="19" y="596"/>
      <point x="-7" y="620"/>
      <point x="-7" y="653" type="curve" smooth="yes"/>
      <point x="-7" y="685"/>
      <point x="19" y="710"/>
      <point x="52" y="710" type="curve" smooth="yes"/>
      <point x="84" y="710"/>
      <point x="112" y="685"/>
      <point x="112" y="653" type="curve" smooth="yes"/>
      <point x="112" y="620"/>
      <point x="84" y="596"/>
    </contour>
    <component base="dotlessi"/>
  </outline>
</glyph>
<glyph name="amacron" format="2">
  <advance width="509"/>
  <unicode hex="0101"/>
  <outline>
    <contour>
      <point x="378" y="596" type="line"/>
      <point x="138" y="596" type="line"/>
      <point x="138" y="659" type="line"/>
      <point x="378" y="659" type="line"/>
    </contour>
    <component base="a"/>
  </outline>
</glyph>
<glyph name="dotlessi" format="2">
	<unicode hex="0131"/>
	<advance width="298"/>
	<outline>
		<contour>
			<point x="263" y="0" type="line"/>
			<point x="31" y="0" type="line"/>
			<point x="31" y="36" type="line"/>
			<point x="131" y="56" type="line"/>
			<point x="154" y="56" type="line"/>
			<point x="263" y="36" type="line"/>
		</contour>
		<contour>
			<point x="190" y="0" type="curve"/>
			<point x="99" y="0" type="line"/>
			<point x="101" y="45"/>
			<point x="102" y="148"/>
			<point x="102" y="210" type="curve" smooth="yes"/>
			<point x="102" y="342" type="line"/>
			<point x="99" y="478" type="line"/>
			<point x="114" y="488" type="line"/>
			<point x="269" y="427" type="line"/>
			<point x="269" y="392" type="line"/>
			<point x="190" y="383" type="line"/>
			<point x="188" y="343"/>
			<point x="187" y="312"/>
			<point x="187" y="257" type="curve" smooth="yes"/>
			<point x="187" y="210" type="line" smooth="yes"/>
			<point x="187" y="148"/>
			<point x="188" y="45"/>
		</contour>
	</outline>
	<anchor name="aboveLC" x="149" y="495"/>
	<anchor name="belowLC" x="149" y="-20"/>
	<anchor name="ogonek" x="111" y="0"/>
</glyph>
<glyph name="Lacute" format="2">
	<unicode hex="0139"/>
	<advance width="596"/>
	<outline>
		<contour>
			<point x="473" y="746" type="curve"/>
			<point x="455" y="721" type="line"/>
			<point x="413" y="743"/>
			<point x="371" y="766"/>
			<point x="329" y="789" type="curve" smooth="yes"/>
			<point x="291" y="810"/>
			<point x="279" y="826"/>
			<point x="279" y="844" type="curve" smooth="yes"/>
			<point x="279" y="864"/>
			<point x="296" y="878"/>
			<point x="317" y="878" type="curve" smooth="yes"/>
			<point x="334" y="878"/>
			<point x="351" y="868"/>
			<point x="379" y="840" type="curve" smooth="yes"/>
			<point x="411" y="810"/>
			<point x="442" y="779"/>
		</contour>
		<component base="L"/>
	</outline>
</glyph>
<glyph name="Lcommaaccent" format="2">
  <advance width="596"/>
  <unicode hex="013B"/>
  <outline>
    <contour>
      <point x="220" y="-125" type="curve" smooth="yes"/>
      <point x="220" y="-108"/>
      <point x="221" y="-93"/>
      <point x="226" y="-73" type="curve"/>
      <point x="242" y="-57"/>
      <point x="258" y="-51"/>
      <point x="274" y="-51" type="curve" smooth="yes"/>
      <point x="307" y="-51"/>
      <point x="322" y="-74"/>
      <point x="322" y="-103" type="curve" smooth="yes"/>
      <point x="322" y="-124"/>
      <point x="303" y="-157"/>
      <point x="253" y="-174" type="curve"/>
      <point x="264" y="-145" type="line"/>
      <point x="268" y="-172"/>
      <point x="293" y="-199"/>
      <point x="338" y="-220" type="curve"/>
      <point x="326" y="-250" type="line"/>
      <point x="269" y="-230"/>
      <point x="220" y="-187"/>
    </contour>
    <component base="L"/>
  </outline>
</glyph>
<glyph name="Lcaron" format="2">
	<unicode hex="013D"/>
	<advance width="596"/>
	<outline>
		<contour>
			<point x="117" y="700" type="curve" smooth="yes"/>
			<point x="132" y="700"/>
			<point x="147" y="696"/>
			<point x="163" y="687" type="curve"/>
			<point x="166" y="478" type="line"/>
			<point x="134" y="478" type="line"/>
			<point x="115" y="532" type="line" smooth="yes"/>
			<point x="99" y="579"/>
			<point x="81" y="634"/>
			<point x="81" y="663" type="curve" smooth="yes"/>
			<point x="81" y="685"/>
			<point x="91" y="700"/>
		</contour>
		<component base="L"/>
	</outline>
	<anchor name="aboveUC" x="406" y="690"/>
	<anchor name="belowLC" x="279" y="-20"/>
</glyph>
<glyph name="Ldot" format="2">
	<unicode hex="013F"/>
	<advance width="596"/>
	<outline>
		<contour>
			<point x="112" y="297" type="curve" smooth="yes"/>
			<point x="72" y="297"/>
			<point x="41" y="329"/>
			<point x="41" y="368" type="curve" smooth="yes"/>
			<point x="41" y="408"/>
			<point x="72" y="440"/>
			<point x="112" y="440" type="curve" smooth="yes"/>
			<point x="152" y="440"/>
			<point x="183" y="408"/>
			<point x="183" y="368" type="curve" smooth="yes"/>
			<point x="183" y="329"/>
			<point x="152" y="297"/>
		</contour>
		<component base="L"/>
	</outline>
</glyph>
<glyph name="Lslash" format="2">
  <advance width="596"/>
  <unicode hex="0141"/>
  <outline>
    <contour>
      <point x="200" y="460" type="line"/>
      <point x="409" y="341" type="line"/>
      <point x="409" y="289" type="line"/>
      <point x="200" y="409" type="line"/>
    </contour>
    <contour>
      <point x="411" y="345" type="line"/>
      <point x="552" y="265" type="line"/>
      <point x="552" y="214" type="line"/>
      <point x="411" y="293" type="line"/>
    </contour>
    <component base="L"/>
  </outline>
</glyph>
<glyph name="tcedilla" format="2">
	<unicode hex="0163"/>
	<advance width="325"/>
	<outline>
		<contour>
			<point x="147" y="-86" type="line"/>
			<point x="98" y="-93"/>
			<point x="75" y="-107"/>
			<point x="75" y="-138" type="curve" smooth="yes"/>
			<point x="75" y="-166"/>
			<point x="94" y="-184"/>
			<point x="133" y="-184" type="curve" smooth="yes"/>
			<point x="151" y="-184"/>
			<point x="165" y="-181"/>
			<point x="181" y="-178" type="curve"/>
			<point x="188" y="-211" type="line"/>
			<point x="175" y="-215"/>
			<point x="154" y="-221"/>
			<point x="125" y="-221" type="curve" smooth="yes"/>
			<point x="52" y="-221"/>
			<point x="13" y="-186"/>
			<point x="13" y="-140" type="curve" smooth="yes"/>
			<point x="13" y="-85"/>
			<point x="66" y="-59"/>
			<point x="127" y="-55" type="curve"/>
			<point x="107" y="-77" type="line"/>
			<point x="97" y="3" type="line"/>
			<point x="134" y="3" type="line"/>
		</contour>
		<component base="t"/>
	</outline>
</glyph>
<glyph name="tcaron" format="2">
	<unicode hex="0165"/>
	<advance width="325"/>
	<outline>
		<contour>
			<point x="15" y="750" type="curve" smooth="yes"/>
			<point x="30" y="750"/>
			<point x="45" y="746"/>
			<point x="61" y="737" type="curve"/>
			<point x="64" y="528" type="line"/>
			<point x="32" y="528" type="line"/>
			<point x="13" y="582" type="line" smooth="yes"/>
			<point x="-3" y="629"/>
			<point x="-21" y="684"/>
			<point x="-21" y="713" type="curve" smooth="yes"/>
			<point x="-21" y="735"/>
			<point x="-11" y="750"/>
		</contour>
		<component base="t"/>
	</outline>
	<anchor name="aboveLC" x="173" y="591"/>
	<anchor name="baseLC" x="121" y="0"/>
	<anchor name="belowLC" x="121" y="-20"/>
</glyph>
<glyph name="tcommaaccent" format="2">
  <advance width="325"/>
  <unicode hex="021B"/>
  <outline>
    <contour>
      <point x="62" y="-125" type="curve" smooth="yes"/>
      <point x="62" y="-108"/>
      <point x="63" y="-93"/>
      <point x="68" y="-73" type="curve"/>
      <point x="84" y="-57"/>
      <point x="100" y="-51"/>
      <point x="116" y="-51" type="curve" smooth="yes"/>
      <point x="149" y="-51"/>
      <point x="164" y="-74"/>
      <point x="164" y="-103" type="curve" smooth="yes"/>
      <point x="164" y="-124"/>
      <point x="145" y="-157"/>
      <point x="95" y="-174" type="curve"/>
      <point x="106" y="-145" type="line"/>
      <point x="110" y="-172"/>
      <point x="135" y="-199"/>
      <point x="180" y="-220" type="curve"/>
      <point x="168" y="-250" type="line"/>
      <point x="111" y="-230"/>
      <point x="62" y="-187"/>
    </contour>
    <component base="t"/>
  </outline>
</glyph>
<glyph name="iotadieresistonos" format="2">
	<unicode hex="0390"/>
	<advance width="287"/>
	<outline>
		<contour>
			<point x="249" y="601" type="curve" smooth="yes"/>
			<point x="220" y="601"/>
			<point x="194" y="623"/>
			<point x="194" y="653" type="curve" smooth="yes"/>
			<point x="194" y="683"/>
			<point x="220" y="705"/>
			<point x="249" y="705" type="curve" smooth="yes"/>
			<point x="278" y="705"/>
			<point x="302" y="683"/>
			<point x="302" y="653" type="curve" smooth="yes"/>
			<point x="302" y="623"/>
			<point x="278" y="601"/>
		</contour>
		<contour>
			<point x="135" y="557" type="line"/>
			<point x="66" y="717" type="line" smooth="yes"/>
			<point x="56" y="741"/>
			<point x="56" y="745"/>
			<point x="56" y="755" type="curve" smooth="yes"/>
			<point x="56" y="775"/>
			<point x="73" y="791"/>
			<point x="97" y="791" type="curve" smooth="yes"/>
			<point x="123" y="791"/>
			<point x="135" y="773"/>
			<point x="139" y="746" type="curve" smooth="yes"/>
			<point x="166" y="566" type="line"/>
		</contour>
		<contour>
			<point x="-5" y="601" type="curve" smooth="yes"/>
			<point x="-34" y="601"/>
			<point x="-58" y="623"/>
			<point x="-58" y="653" type="curve" smooth="yes"/>
			<point x="-58" y="683"/>
			<point x="-34" y="705"/>
			<point x="-5" y="705" type="curve" smooth="yes"/>
			<point x="24" y="705"/>
			<point x="49" y="683"/>
			<point x="49" y="653" type="curve" smooth="yes"/>
			<point x="49" y="623"/>
			<point x="24" y="601"/>
		</contour>
		<component base="iota"/>
	</outline>
</glyph>
<glyph name="iota" format="2">
	<unicode hex="03B9"/>
	<advance width="287"/>
	<outline>
		<contour>
			<point x="96" y="-13" type="curve" smooth="yes"/>
			<point x="60" y="-13"/>
			<point x="31" y="10"/>
			<point x="15" y="40" type="curve"/>
			<point x="23" y="65" type="line"/>
			<point x="37" y="60"/>
			<point x="52" y="56"/>
			<point x="66" y="56" type="curve" smooth="yes"/>
			<point x="97" y="56"/>
			<point x="114" y="72"/>
			<point x="114" y="136" type="curve" smooth="yes"/>
			<point x="114" y="203"/>
			<point x="107" y="278"/>
			<point x="92" y="477" type="curve"/>
			<point x="102" y="487" type="line"/>
			<point x="189" y="469" type="line"/>
			<point x="186" y="125" type="line" smooth="yes"/>
			<point x="185" y="29"/>
			<point x="158" y="-13"/>
		</contour>
	</outline>
	<anchor name="aboveLC" x="137" y="495"/>
</glyph>
<glyph name="lambda" format="2">
  <advance width="533"/>
  <unicode hex="03BB"/>
  <outline>
    <contour>
      <point x="499" y="-4" type="line"/>
      <point x="415" y="-10" type="line"/>
      <point x="232" y="421" type="line"/>
      <point x="266" y="508" type="line"/>
      <point x="506" y="9" type="line"/>
    </contour>
    <contour>
      <point x="67" y="-13" type="curve" smooth="yes"/>
      <point x="36" y="-13"/>
      <point x="6" y="15"/>
      <point x="-10" y="51" type="curve"/>
      <point x="0" y="76" type="line"/>
      <point x="16" y="71"/>
      <point x="28" y="68"/>
      <point x="43" y="68" type="curve" smooth="yes"/>
      <point x="74" y="68"/>
      <point x="94" y="86"/>
      <point x="117" y="156" type="curve" smooth="yes"/>
      <point x="261" y="609" type="line" smooth="yes"/>
      <point x="290" y="700"/>
      <point x="337" y="740"/>
      <point x="403" y="740" type="curve" smooth="yes"/>
      <point x="453" y="740"/>
      <point x="489" y="712"/>
      <point x="513" y="672" type="curve"/>
      <point x="492" y="628" type="line"/>
      <point x="469" y="642"/>
      <point x="440" y="652"/>
      <point x="407" y="652" type="curve" smooth="yes"/>
      <point x="356" y="652"/>
      <point x="327" y="635"/>
      <point x="304" y="565" type="curve" smooth="yes"/>
      <point x="255" y="417" type="line"/>
      <point x="250" y="417" type="line"/>
      <point x="177" y="135" type="line" smooth="yes"/>
      <point x="144" y="8"/>
      <point x="107" y="-13"/>
    </contour>
  </outline>
</glyph>
<glyph name="Ldotbelow" format="2">
	<unicode hex="1E36"/>
	<advance width="596"/>
	<outline>
		<contour>
			<point x="279" y="-203" type="curve" smooth="yes"/>
			<point x="241" y="-203"/>
			<point x="212" y="-177"/>
			<point x="212" y="-139" type="curve" smooth="yes"/>
			<point x="212" y="-102"/>
			<point x="241" y="-75"/>
			<point x="279" y="-75" type="curve" smooth="yes"/>
			<point x="317" y="-75"/>
			<point x="346" y="-102"/>
			<point x="346" y="-139" type="curve" smooth="yes"/>
			<point x="346" y="-177"/>
			<point x="317" y="-203"/>
		</contour>
		<component base="L"/>
	</outline>
</glyph>
<glyph name="Ldotbelowmacron" format="2">
  <advance width="596"/>
  <unicode hex="1E38"/>
  <outline>
    <contour>
      <point x="546" y="759" type="line"/>
      <point x="266" y="759" type="line"/>
      <point x="266" y="822" type="line"/>
      <point x="546" y="822" type="line"/>
    </contour>
    <component base="Ldotbelow"/>
  </outline>
</glyph>
<glyph name="Llinebelow" format="2">
	<unicode hex="1E3A"/>
	<advance width="596"/>
	<outline>
		<contour>
			<point x="399" y="-176" type="line"/>
			<point x="159" y="-176" type="line"/>
			<point x="159" y="-113" type="line"/>
			<point x="399" y="-113" type="line"/>
		</contour>
		<component base="L"/>
	</outline>
</glyph>
